<svg width="50" height="50" viewBox="0 0 50 50" fill="none" xmlns="http://www.w3.org/2000/svg">
<mask id="path-1-outside-1_1981_14" maskUnits="userSpaceOnUse" x="1" y="10" width="48" height="29" fill="black">
<rect fill="white" x="1" y="10" width="48" height="29"/>
<path d="M12.0774 36C11.8427 36 11.6507 35.9253 11.5014 35.776C11.352 35.6267 11.2774 35.4347 11.2774 35.2V18.624H5.58138C5.34671 18.624 5.15471 18.5493 5.00538 18.4C4.85604 18.2293 4.78138 18.0373 4.78138 17.824V14.4C4.78138 14.1653 4.85604 13.9733 5.00538 13.824C5.15471 13.6747 5.34671 13.6 5.58138 13.6H22.7974C23.032 13.6 23.224 13.6747 23.3734 13.824C23.5227 13.9733 23.5974 14.1653 23.5974 14.4V17.824C23.5974 18.0373 23.5227 18.2293 23.3734 18.4C23.224 18.5493 23.032 18.624 22.7974 18.624H17.1014V35.2C17.1014 35.4347 17.0267 35.6267 16.8774 35.776C16.728 35.9253 16.536 36 16.3014 36H12.0774ZM27.3056 36C27.071 36 26.879 35.9253 26.7296 35.776C26.5803 35.6267 26.5056 35.4347 26.5056 35.2V14.4C26.5056 14.1653 26.5803 13.9733 26.7296 13.824C26.879 13.6747 27.071 13.6 27.3056 13.6H36.2656C38.0363 13.6 39.5723 13.8773 40.8736 14.432C42.1963 14.9653 43.2203 15.776 43.9456 16.864C44.6923 17.952 45.0656 19.328 45.0656 20.992C45.0656 22.6347 44.6923 23.9893 43.9456 25.056C43.2203 26.1227 42.1963 26.912 40.8736 27.424C39.5723 27.936 38.0363 28.192 36.2656 28.192H32.4576V35.2C32.4576 35.4347 32.3723 35.6267 32.2016 35.776C32.0523 35.9253 31.8603 36 31.6256 36H27.3056ZM32.3616 23.776H36.1056C37.023 23.776 37.7483 23.5413 38.2816 23.072C38.8363 22.6027 39.1136 21.888 39.1136 20.928C39.1136 20.1173 38.879 19.4347 38.4096 18.88C37.9403 18.3253 37.1723 18.048 36.1056 18.048H32.3616V23.776Z"/>
</mask>
<path d="M12.0774 36C11.8427 36 11.6507 35.9253 11.5014 35.776C11.352 35.6267 11.2774 35.4347 11.2774 35.2V18.624H5.58138C5.34671 18.624 5.15471 18.5493 5.00538 18.4C4.85604 18.2293 4.78138 18.0373 4.78138 17.824V14.4C4.78138 14.1653 4.85604 13.9733 5.00538 13.824C5.15471 13.6747 5.34671 13.6 5.58138 13.6H22.7974C23.032 13.6 23.224 13.6747 23.3734 13.824C23.5227 13.9733 23.5974 14.1653 23.5974 14.4V17.824C23.5974 18.0373 23.5227 18.2293 23.3734 18.4C23.224 18.5493 23.032 18.624 22.7974 18.624H17.1014V35.2C17.1014 35.4347 17.0267 35.6267 16.8774 35.776C16.728 35.9253 16.536 36 16.3014 36H12.0774ZM27.3056 36C27.071 36 26.879 35.9253 26.7296 35.776C26.5803 35.6267 26.5056 35.4347 26.5056 35.2V14.4C26.5056 14.1653 26.5803 13.9733 26.7296 13.824C26.879 13.6747 27.071 13.6 27.3056 13.6H36.2656C38.0363 13.6 39.5723 13.8773 40.8736 14.432C42.1963 14.9653 43.2203 15.776 43.9456 16.864C44.6923 17.952 45.0656 19.328 45.0656 20.992C45.0656 22.6347 44.6923 23.9893 43.9456 25.056C43.2203 26.1227 42.1963 26.912 40.8736 27.424C39.5723 27.936 38.0363 28.192 36.2656 28.192H32.4576V35.2C32.4576 35.4347 32.3723 35.6267 32.2016 35.776C32.0523 35.9253 31.8603 36 31.6256 36H27.3056ZM32.3616 23.776H36.1056C37.023 23.776 37.7483 23.5413 38.2816 23.072C38.8363 22.6027 39.1136 21.888 39.1136 20.928C39.1136 20.1173 38.879 19.4347 38.4096 18.88C37.9403 18.3253 37.1723 18.048 36.1056 18.048H32.3616V23.776Z" fill="#F2CD88"/>
<path d="M11.2774 18.624H14.2774V15.624H11.2774V18.624ZM5.00538 18.4L2.74764 20.3755L2.81342 20.4507L2.88406 20.5213L5.00538 18.4ZM5.00538 13.824L7.12669 15.9453L7.1267 15.9453L5.00538 13.824ZM23.3734 18.4L25.4947 20.5213L25.5653 20.4507L25.6311 20.3755L23.3734 18.4ZM17.1014 18.624V15.624H14.1014V18.624H17.1014ZM12.0774 33C12.2807 33 12.5493 33.0331 12.8447 33.148C13.1463 33.2653 13.4108 33.4428 13.6227 33.6547L9.38005 37.8973C10.157 38.6743 11.144 39 12.0774 39V33ZM13.6227 33.6547C13.8346 33.8666 14.0121 34.1311 14.1294 34.4327C14.2443 34.7281 14.2774 34.9966 14.2774 35.2H8.27738C8.27738 36.1334 8.60311 37.1204 9.38005 37.8973L13.6227 33.6547ZM14.2774 35.2V18.624H8.27738V35.2H14.2774ZM11.2774 15.624H5.58138V21.624H11.2774V15.624ZM5.58138 15.624C5.78473 15.624 6.05327 15.6571 6.34871 15.772C6.65031 15.8893 6.9148 16.0668 7.12669 16.2787L2.88406 20.5213C3.661 21.2983 4.64796 21.624 5.58138 21.624V15.624ZM7.26311 16.4245C7.39504 16.5753 7.53218 16.7804 7.63339 17.0407C7.73566 17.3036 7.78138 17.5722 7.78138 17.824H1.78138C1.78138 18.8123 2.15258 19.6954 2.74764 20.3755L7.26311 16.4245ZM7.78138 17.824V14.4H1.78138V17.824H7.78138ZM7.78138 14.4C7.78138 14.6034 7.74828 14.8719 7.63339 15.1673C7.5161 15.4689 7.33859 15.7334 7.12669 15.9453L2.88406 11.7027C2.10711 12.4796 1.78138 13.4666 1.78138 14.4H7.78138ZM7.1267 15.9453C6.91481 16.1572 6.65032 16.3347 6.34872 16.452C6.05328 16.5669 5.78474 16.6 5.58138 16.6V10.6C4.64795 10.6 3.66099 10.9257 2.88405 11.7027L7.1267 15.9453ZM5.58138 16.6H22.7974V10.6H5.58138V16.6ZM22.7974 16.6C22.594 16.6 22.3255 16.5669 22.03 16.452C21.7284 16.3347 21.4639 16.1572 21.2521 15.9453L25.4947 11.7027C24.7178 10.9257 23.7308 10.6 22.7974 10.6V16.6ZM21.2521 15.9453C21.0402 15.7334 20.8626 15.4689 20.7454 15.1673C20.6305 14.8719 20.5974 14.6034 20.5974 14.4H26.5974C26.5974 13.4666 26.2716 12.4796 25.4947 11.7027L21.2521 15.9453ZM20.5974 14.4V17.824H26.5974V14.4H20.5974ZM20.5974 17.824C20.5974 17.5722 20.6431 17.3037 20.7454 17.0407C20.8466 16.7804 20.9837 16.5753 21.1156 16.4245L25.6311 20.3755C26.2262 19.6954 26.5974 18.8123 26.5974 17.824H20.5974ZM21.2521 16.2787C21.464 16.0668 21.7284 15.8893 22.03 15.772C22.3255 15.6571 22.594 15.624 22.7974 15.624V21.624C23.7308 21.624 24.7177 21.2983 25.4947 20.5213L21.2521 16.2787ZM22.7974 15.624H17.1014V21.624H22.7974V15.624ZM14.1014 18.624V35.2H20.1014V18.624H14.1014ZM14.1014 35.2C14.1014 34.9966 14.1345 34.7281 14.2494 34.4327C14.3666 34.1311 14.5442 33.8666 14.7561 33.6547L18.9987 37.8973C19.7756 37.1204 20.1014 36.1334 20.1014 35.2H14.1014ZM14.7561 33.6547C14.9679 33.4428 15.2324 33.2653 15.534 33.148C15.8295 33.0331 16.098 33 16.3014 33V39C17.2348 39 18.2218 38.6743 18.9987 37.8973L14.7561 33.6547ZM16.3014 33H12.0774V39H16.3014V33ZM26.7296 35.776L28.8509 33.6547L28.8509 33.6547L26.7296 35.776ZM26.7296 13.824L28.8509 15.9453L28.851 15.9453L26.7296 13.824ZM40.8736 14.432L39.6973 17.1918L39.7244 17.2033L39.7517 17.2143L40.8736 14.432ZM43.9456 16.864L41.4495 18.5281L41.4607 18.5449L41.4721 18.5615L43.9456 16.864ZM43.9456 25.056L41.4879 23.3356L41.4763 23.3523L41.4648 23.3691L43.9456 25.056ZM40.8736 27.424L39.7906 24.6263L39.7829 24.6293L39.7753 24.6323L40.8736 27.424ZM32.4576 28.192V25.192H29.4576V28.192H32.4576ZM32.2016 35.776L30.2261 33.5183L30.1509 33.584L30.0803 33.6547L32.2016 35.776ZM32.3616 23.776H29.3616V26.776H32.3616V23.776ZM38.2816 23.072L36.3438 20.7818L36.3216 20.8006L36.2997 20.8199L38.2816 23.072ZM38.4096 18.88L40.6998 16.9422L40.6998 16.9422L38.4096 18.88ZM32.3616 18.048V15.048H29.3616V18.048H32.3616ZM27.3056 33C27.509 33 27.7775 33.0331 28.073 33.148C28.3746 33.2653 28.6391 33.4428 28.8509 33.6547L24.6083 37.8973C25.3852 38.6743 26.3722 39 27.3056 39V33ZM28.8509 33.6547C29.0628 33.8666 29.2404 34.1311 29.3576 34.4327C29.4725 34.7281 29.5056 34.9966 29.5056 35.2H23.5056C23.5056 36.1334 23.8314 37.1204 24.6083 37.8973L28.8509 33.6547ZM29.5056 35.2V14.4H23.5056V35.2H29.5056ZM29.5056 14.4C29.5056 14.6034 29.4725 14.8719 29.3576 15.1673C29.2403 15.4689 29.0628 15.7334 28.8509 15.9453L24.6083 11.7027C23.8314 12.4796 23.5056 13.4666 23.5056 14.4H29.5056ZM28.851 15.9453C28.6391 16.1572 28.3746 16.3347 28.073 16.452C27.7775 16.5669 27.509 16.6 27.3056 16.6V10.6C26.3722 10.6 25.3852 10.9257 24.6083 11.7027L28.851 15.9453ZM27.3056 16.6H36.2656V10.6H27.3056V16.6ZM36.2656 16.6C37.7304 16.6 38.8488 16.8301 39.6973 17.1918L42.0499 11.6722C40.2958 10.9246 38.3422 10.6 36.2656 10.6V16.6ZM39.7517 17.2143C40.5673 17.5432 41.0896 17.9884 41.4495 18.5281L46.4418 15.1999C45.3509 13.5636 43.8253 12.3875 41.9955 11.6497L39.7517 17.2143ZM41.4721 18.5615C41.7959 19.0334 42.0656 19.7755 42.0656 20.992H48.0656C48.0656 18.8805 47.5886 16.8706 46.4192 15.1665L41.4721 18.5615ZM42.0656 20.992C42.0656 22.1808 41.799 22.8912 41.4879 23.3356L46.4033 26.7764C47.5855 25.0875 48.0656 23.0885 48.0656 20.992H42.0656ZM41.4648 23.3691C41.1159 23.8822 40.6045 24.3112 39.7906 24.6263L41.9566 30.2217C43.788 29.5128 45.3247 28.3631 46.4264 26.7429L41.4648 23.3691ZM39.7753 24.6323C38.9032 24.9754 37.7563 25.192 36.2656 25.192V31.192C38.3162 31.192 40.2414 30.8966 41.972 30.2157L39.7753 24.6323ZM36.2656 25.192H32.4576V31.192H36.2656V25.192ZM29.4576 28.192V35.2H35.4576V28.192H29.4576ZM29.4576 35.2C29.4576 34.9468 29.5055 34.6317 29.6522 34.3016C29.8001 33.9688 30.0101 33.7072 30.2261 33.5183L34.1771 38.0337C35.0243 37.2925 35.4576 36.2654 35.4576 35.2H29.4576ZM30.0803 33.6547C30.2922 33.4428 30.5567 33.2653 30.8583 33.148C31.1537 33.0331 31.4223 33 31.6256 33V39C32.559 39 33.546 38.6743 34.3229 37.8973L30.0803 33.6547ZM31.6256 33H27.3056V39H31.6256V33ZM32.3616 26.776H36.1056V20.776H32.3616V26.776ZM36.1056 26.776C37.5347 26.776 39.0385 26.4022 40.2635 25.3241L36.2997 20.8199C36.3278 20.7951 36.3564 20.7756 36.3812 20.7617C36.4055 20.7481 36.4185 20.7443 36.4142 20.7457C36.4033 20.7492 36.3124 20.776 36.1056 20.776V26.776ZM40.2195 25.3622C41.6485 24.153 42.1136 22.4685 42.1136 20.928H36.1136C36.1136 21.1269 36.0841 21.1625 36.1088 21.0987C36.1221 21.0645 36.1475 21.0111 36.1911 20.9492C36.2351 20.8865 36.2876 20.8294 36.3438 20.7818L40.2195 25.3622ZM42.1136 20.928C42.1136 19.4954 41.6811 18.1019 40.6998 16.9422L36.1195 20.8178C36.1197 20.8181 36.1156 20.8131 36.1101 20.8036C36.1047 20.794 36.1016 20.7863 36.1006 20.7832C36.0976 20.7747 36.1136 20.8141 36.1136 20.928H42.1136ZM40.6998 16.9422C39.4345 15.4468 37.6318 15.048 36.1056 15.048V21.048C36.2439 21.048 36.3403 21.0571 36.4012 21.0663C36.4619 21.0755 36.4787 21.0834 36.4627 21.0777C36.4453 21.0714 36.3952 21.051 36.3276 21.0055C36.2585 20.959 36.1857 20.8961 36.1195 20.8178L40.6998 16.9422ZM36.1056 15.048H32.3616V21.048H36.1056V15.048ZM29.3616 18.048V23.776H35.3616V18.048H29.3616Z" fill="black" mask="url(#path-1-outside-1_1981_14)"/>
</svg>
